<?xml version="1.0" standalone="no"?>
<!DOCTYPE svg PUBLIC "-//W3C//DTD SVG 20010904//EN"
 "http://www.w3.org/TR/2001/REC-SVG-20010904/DTD/svg10.dtd">
<svg version="1.0" xmlns="http://www.w3.org/2000/svg"
 width="256.000000pt" height="256.000000pt" viewBox="0 0 256.000000 256.000000"
 preserveAspectRatio="xMidYMid meet">
<metadata>
Created by potrace 1.11, written by Peter Selinger 2001-2013
</metadata>
<g transform="translate(0.000000,256.000000) scale(0.100000,-0.100000)"
fill="#000000" stroke="none">
<path d="M1207 2545 c-1 -2 -27 -5 -57 -8 -214 -23 -401 -93 -585 -217 -79
-54 -232 -199 -290 -275 -166 -220 -256 -487 -256 -765 0 -69 7 -169 16 -210
3 -14 8 -38 11 -55 6 -38 59 -207 72 -231 6 -11 25 -48 43 -84 18 -36 51 -91
73 -124 23 -32 47 -68 55 -80 36 -53 215 -216 291 -267 307 -200 652 -260
1019 -175 169 39 393 159 523 279 l48 44 -166 164 c-151 150 -179 171 -194
150 -11 -16 -98 -81 -107 -81 -6 0 -16 -6 -22 -14 -13 -16 -139 -67 -216 -88
-31 -8 -102 -13 -185 -13 -110 1 -148 5 -206 23 -85 26 -198 78 -215 98 -6 8
-17 14 -24 14 -18 0 -156 136 -197 195 -66 93 -122 229 -135 330 -13 93 -4
288 14 318 2 4 7 20 9 35 7 38 67 164 106 220 92 134 285 276 422 309 148 36
301 42 399 17 26 -7 51 -13 55 -14 80 -14 219 -87 273 -144 13 -14 29 -26 35
-26 13 0 334 314 334 327 0 11 -60 63 -149 130 -96 73 -287 159 -397 179 -15
3 -31 7 -35 10 -4 2 -25 7 -46 9 -21 3 -54 8 -73 10 -37 5 -238 13 -243 10z"/>
<path d="M1922 1871 l-274 -268 -34 32 c-71 67 -223 125 -309 119 -82 -7 -138
-15 -148 -21 -7 -4 -18 -8 -25 -9 -70 -11 -212 -125 -251 -202 -41 -81 -100
-74 577 -73 331 0 602 -3 603 -7 0 -4 3 -16 5 -27 20 -84 4 -318 -28 -400 -33
-88 -89 -190 -117 -215 -3 -3 -14 -14 -24 -26 -17 -21 -15 -23 144 -180 88
-87 162 -161 165 -163 9 -9 59 49 119 139 130 195 204 399 222 610 12 135 3
278 -23 375 -8 33 -17 67 -19 75 -17 79 -99 253 -163 347 -42 61 -129 163
-140 163 -4 0 -130 -121 -280 -269z"/>
<path d="M588 1129 c-22 -14 25 -148 81 -233 33 -52 92 -117 102 -114 4 2 36
30 71 63 35 33 75 70 89 82 l25 23 49 -36 c60 -42 122 -72 190 -90 171 -46
376 31 503 190 15 19 51 97 52 111 0 11 -1144 15 -1162 4z"/>
</g>
</svg>
